<?xml version="1.0" encoding="utf-8"?>
<!-- Generator: Adobe Illustrator 24.3.0, SVG Export Plug-In . SVG Version: 6.00 Build 0)  -->
<svg version="1.1" id="Layer_1" xmlns="http://www.w3.org/2000/svg" xmlns:xlink="http://www.w3.org/1999/xlink" x="0px" y="0px"
	 viewBox="0 0 500 500" style="enable-background:new 0 0 500 500;" xml:space="preserve">
<style type="text/css">
	.st0{fill:#3CCF4E;}
	.st1{fill:#003865;}
	.st2{fill:none;stroke:#003865;stroke-width:5.0009;stroke-miterlimit:20.0038;}
	.st3{fill:none;stroke:#3CCF4E;stroke-width:5.0009;stroke-miterlimit:20.0038;}
</style>
<g>
	<g transform="translate(164.490418, 217.449845)">
		<g>
			<path class="st0" d="M95.9,70.1l-4,4.1L65.2,47.6l26.7-26.7l4,4.2L73.4,47.6L95.9,70.1z"/>
		</g>
	</g>
</g>
<g>
	<g transform="translate(68.849007, 214.074845)">
		<g>
			<path class="st1" d="M84.4,41.7c0,4-0.4,7.8-1.2,11.4c-0.8,3.6-2.2,6.8-4,9.5c-1.8,2.7-4.2,4.9-7.1,6.4
				c-2.9,1.6-6.4,2.4-10.5,2.4H42.2V11.9h19.3c4,0,7.5,0.8,10.4,2.4c2.9,1.6,5.3,3.8,7.1,6.5c1.8,2.7,3.2,5.9,4.1,9.5
				C83.9,33.9,84.4,37.7,84.4,41.7z M78.1,41.7c0-7.8-1.5-13.8-4.4-18.1c-2.9-4.3-7-6.4-12.2-6.4H48.4V66h13.1
				c5.2,0,9.3-2.1,12.2-6.3C76.7,55.5,78.1,49.5,78.1,41.7z"/>
		</g>
	</g>
</g>
<g>
	<g transform="translate(107.059763, 214.074845)">
		<g>
			<path class="st1" d="M57.6,57.8c0.4,3.3,1.6,5.9,3.9,7.8c2.2,1.9,5.1,2.9,8.7,2.9c2.5,0,4.7-0.5,6.7-1.4c2-0.9,3.4-2.1,4.4-3.6
				l3.4,2.2c-1.7,2.2-3.7,3.8-6,5c-2.3,1.1-5.2,1.7-8.6,1.7c-2.6,0-4.9-0.4-7.1-1.2c-2.2-0.8-4-1.9-5.6-3.3
				c-1.6-1.4-2.8-3.1-3.6-5.1c-0.9-2-1.3-4.2-1.3-6.6c0-2.3,0.4-4.5,1.2-6.5c0.8-2,1.9-3.7,3.4-5.1c1.5-1.4,3.3-2.6,5.3-3.4
				c2.1-0.8,4.5-1.2,7-1.2c2.8,0,5.3,0.4,7.4,1.3c2.1,0.9,3.9,2.1,5.3,3.7c1.4,1.6,2.5,3.4,3.1,5.6c0.7,2.2,1,4.6,1,7.2H57.6z
				 M81.2,53.9c-0.5-3.4-1.9-5.9-4-7.6c-2.1-1.7-4.7-2.5-7.8-2.5c-1.6,0-3,0.2-4.4,0.7c-1.3,0.5-2.5,1.2-3.5,2
				c-1,0.9-1.9,1.9-2.6,3.2c-0.7,1.2-1.1,2.6-1.3,4.1H81.2z"/>
		</g>
	</g>
</g>
<g>
	<g transform="translate(145.270519, 214.074845)">
		<g>
			<path class="st1" d="M84.1,41.8L71,71.4h-5.9L52,41.8h5.3l10.8,25.9l10.7-25.9H84.1z"/>
		</g>
	</g>
</g>
<g>
	<g transform="translate(180.22423, 236.754858)">
		<g>
			<path class="st1" d="M98.3,54L71.6,80.7l-4.1-4.1L90,54L67.5,31.5l4.1-4.2L98.3,54z"/>
		</g>
	</g>
</g>
<g>
	<g transform="translate(207.967755, 241.004838)">
		<g>
			<path class="st0" d="M112.7,63.3c0,5.7-1.8,9.9-5.5,12.8c-3.7,2.8-8.9,4.2-15.7,4.2h-19V20.9h17.9c2.5,0,4.9,0.2,7.3,0.6
				c2.4,0.4,4.5,1.2,6.4,2.3c1.9,1.1,3.4,2.7,4.6,4.7c1.2,2,1.8,4.6,1.8,7.8c0,6.2-3.1,10.4-9.2,12.6
				C108.9,51.2,112.7,56,112.7,63.3z M104.4,36.3c0-2.1-0.4-3.8-1.3-5.1c-0.9-1.3-2-2.4-3.4-3.1c-1.4-0.7-2.9-1.2-4.5-1.5
				c-1.6-0.3-3.2-0.4-4.7-0.4H78.8v20.2h11.7c1.7,0,3.4-0.1,5-0.4c1.7-0.3,3.1-0.8,4.4-1.5c1.3-0.8,2.4-1.8,3.2-3.1
				C104,40.1,104.4,38.4,104.4,36.3z M106.5,63.3c0-4.1-1.3-7.1-4-8.9c-2.7-1.9-6.3-2.8-11-2.8H78.8V75h12.7c4.7,0,8.3-1,11-2.9
				C105.1,70.1,106.5,67.2,106.5,63.3z"/>
		</g>
	</g>
</g>
<g>
	<g transform="translate(246.178511, 241.004838)">
		<g>
			<path class="st0" d="M77,73.7c0-1.6,0.5-3,1.4-4.1c0.9-1.1,2.2-2,3.7-2.6c1.5-0.6,3.3-1.1,5.2-1.4c2-0.3,4-0.4,6-0.4
				c0.8,0,1.5,0,2.1,0c0.6,0,1.2,0,1.8,0.1c0.6,0,1.1,0.1,1.7,0.1c0.6,0.1,1.2,0.1,1.9,0.2v-1.9c0-1.3-0.3-2.3-0.9-3.1
				c-0.6-0.8-1.4-1.5-2.3-1.9c-0.9-0.5-1.9-0.8-2.9-1c-1-0.2-1.8-0.3-2.5-0.3c-2.2,0-4.3,0.3-6.1,0.8c-1.9,0.5-3.6,1.2-5.2,2.1
				l-2-2.9c1.8-1,3.8-1.7,6-2.3c2.2-0.6,4.7-0.9,7.3-0.9c1.6,0,3.2,0.2,4.8,0.5c1.6,0.4,3,0.9,4.2,1.7c1.2,0.8,2.2,1.7,3,3
				c0.7,1.2,1.1,2.7,1.1,4.4v17h-4.4v-4.4c-0.8,0.8-1.6,1.6-2.6,2.2c-1,0.6-2,1.1-3,1.5c-1.1,0.4-2.1,0.7-3.2,0.9
				c-1.1,0.2-2.1,0.3-3,0.3c-3.9,0-6.9-0.7-8.9-2C78,78.1,77,76.2,77,73.7z M88.9,78.1c1.8,0,3.5-0.2,4.9-0.7
				c1.5-0.5,2.7-1.1,3.7-1.8c1-0.7,1.8-1.5,2.4-2.3c0.6-0.8,0.8-1.5,0.8-2.2v-2.5c-1.4-0.2-2.8-0.3-4.1-0.3c-1.3,0-2.4,0-3.4,0
				c-1.6,0-3.1,0.1-4.5,0.3c-1.5,0.2-2.7,0.5-3.8,0.9c-1.1,0.4-1.9,1-2.6,1.6c-0.7,0.7-1,1.5-1,2.5c0,1.1,0.6,2.1,1.8,3
				C84.4,77.6,86.3,78.1,88.9,78.1z"/>
		</g>
	</g>
</g>
<g>
	<g transform="translate(284.389267, 241.004838)">
		<g>
			<path class="st0" d="M106.2,55.7L88.8,93.2c-0.9,2.1-2.2,3.5-3.8,4.1c-1.6,0.7-3.4,1-5.4,1c-2.2,0-4.4-0.4-6.6-1.1l0.9-3.8
				c1.1,0.4,2.1,0.7,3.2,0.9c1,0.2,1.9,0.3,2.5,0.3c1.6,0,2.6-0.4,3.2-1.1c0.6-0.7,1.1-1.5,1.5-2.5l2-4.5L72,55.7h5.6l11.6,26.2
				l11.3-26.2H106.2z"/>
		</g>
	</g>
</g>
<g>
	<g transform="translate(322.588841, 241.004838)">
	</g>
</g>
<path class="st2" d="M110.2,314.9h141.6"/>
<path class="st3" d="M256.4,240.9h137.2"/>
<path class="st1" d="M430,326.7c-0.9-31.5-1.7-71.6-2.1-103.3l-0.4-34.4l2.5,2.6c-102.7,0.8-205.4,0.7-308.1-1.4
	c-14.7-0.3-29.3-0.6-44-1.1c14.7-0.5,29.3-0.8,44-1.1c103.5-2.2,207.1-2.3,310.6-1.4C432.1,231.2,431.3,282.3,430,326.7L430,326.7z"
	/>
<path class="st1" d="M72.4,216.2c0.9,31.5,1.7,71.7,2.2,103.3l0.4,34.4l-2.5-2.5c102.7-0.8,205.4-0.8,308.1,1.4
	c14.7,0.3,29.3,0.6,44,1.1c-14.7,0.5-29.3,0.8-44,1.1c-103.5,2.2-207.1,2.3-310.6,1.4C70.3,311.8,71.1,260.7,72.4,216.2z"/>
</svg>
