<svg xmlns="http://www.w3.org/2000/svg" xmlns:xlink="http://www.w3.org/1999/xlink" width="500" zoomAndPan="magnify" viewBox="0 0 375 374.999991" height="500" preserveAspectRatio="xMidYMid meet" version="1.0"><defs><g/></defs><rect x="-37.5" width="450" fill="#ffffff" y="-37.499999" height="449.999989" fill-opacity="1"/><rect x="-37.5" width="450" fill="#ffffff" y="-37.499999" height="449.999989" fill-opacity="1"/><rect x="-37.5" width="450" fill="#ffffff" y="-37.499999" height="449.999989" fill-opacity="1"/><rect x="-37.5" width="450" fill="#ffffff" y="-37.499999" height="449.999989" fill-opacity="1"/><g fill="#3ccf4e" fill-opacity="1"><g transform="translate(164.490418, 217.449845)"><g><path d="M 30.78125 -1.765625 L 27.78125 1.328125 L 7.78125 -18.671875 L 27.78125 -38.671875 L 30.78125 -35.546875 L 13.90625 -18.671875 Z M 30.78125 -1.765625 "/></g></g></g><g fill="#003865" fill-opacity="1"><g transform="translate(68.849007, 214.074845)"><g><path d="M 33.328125 -22.25 C 33.328125 -19.269531 33.015625 -16.425781 32.390625 -13.71875 C 31.765625 -11.019531 30.757812 -8.648438 29.375 -6.609375 C 28 -4.578125 26.222656 -2.96875 24.046875 -1.78125 C 21.867188 -0.59375 19.242188 0 16.171875 0 L 1.671875 0 L 1.671875 -44.609375 L 16.171875 -44.609375 C 19.203125 -44.609375 21.800781 -44 23.96875 -42.78125 C 26.144531 -41.5625 27.921875 -39.925781 29.296875 -37.875 C 30.679688 -35.820312 31.695312 -33.453125 32.34375 -30.765625 C 33 -28.078125 33.328125 -25.238281 33.328125 -22.25 Z M 28.640625 -22.25 C 28.640625 -28.082031 27.539062 -32.597656 25.34375 -35.796875 C 23.144531 -39.003906 20.085938 -40.609375 16.171875 -40.609375 L 6.359375 -40.609375 L 6.359375 -4 L 16.171875 -4 C 20.085938 -4 23.144531 -5.582031 25.34375 -8.75 C 27.539062 -11.914062 28.640625 -16.414062 28.640625 -22.25 Z M 28.640625 -22.25 "/></g></g></g><g fill="#003865" fill-opacity="1"><g transform="translate(107.059763, 214.074845)"><g><path d="M 4.6875 -14.28125 C 5.03125 -10.914062 6.257812 -8.226562 8.375 -6.21875 C 10.488281 -4.21875 13.242188 -3.21875 16.640625 -3.21875 C 19.035156 -3.21875 21.164062 -3.707031 23.03125 -4.6875 C 24.90625 -5.664062 26.304688 -6.882812 27.234375 -8.34375 L 30.515625 -6.078125 C 28.921875 -3.847656 27.019531 -2.144531 24.8125 -0.96875 C 22.601562 0.195312 19.878906 0.78125 16.640625 0.78125 C 14.179688 0.78125 11.925781 0.375 9.875 -0.4375 C 7.820312 -1.257812 6.050781 -2.40625 4.5625 -3.875 C 3.070312 -5.34375 1.914062 -7.09375 1.09375 -9.125 C 0.269531 -11.15625 -0.140625 -13.410156 -0.140625 -15.890625 C -0.140625 -18.304688 0.226562 -20.535156 0.96875 -22.578125 C 1.707031 -24.617188 2.78125 -26.382812 4.1875 -27.875 C 5.59375 -29.363281 7.296875 -30.523438 9.296875 -31.359375 C 11.304688 -32.191406 13.550781 -32.609375 16.03125 -32.609375 C 18.738281 -32.609375 21.109375 -32.148438 23.140625 -31.234375 C 25.171875 -30.328125 26.863281 -29.066406 28.21875 -27.453125 C 29.570312 -25.847656 30.570312 -23.929688 31.21875 -21.703125 C 31.875 -19.472656 32.203125 -17 32.203125 -14.28125 Z M 27.234375 -18.28125 C 26.710938 -21.769531 25.445312 -24.367188 23.4375 -26.078125 C 21.4375 -27.785156 18.96875 -28.640625 16.03125 -28.640625 C 14.53125 -28.640625 13.140625 -28.394531 11.859375 -27.90625 C 10.585938 -27.414062 9.457031 -26.710938 8.46875 -25.796875 C 7.488281 -24.890625 6.671875 -23.789062 6.015625 -22.5 C 5.359375 -21.21875 4.9375 -19.8125 4.75 -18.28125 Z M 27.234375 -18.28125 "/></g></g></g><g fill="#003865" fill-opacity="1"><g transform="translate(145.270519, 214.074845)"><g><path d="M 32.921875 -31.859375 L 19.109375 0 L 12.8125 0 L -1.0625 -31.859375 L 4.546875 -31.859375 L 15.96875 -3.9375 L 27.3125 -31.859375 Z M 32.921875 -31.859375 "/></g></g></g><g fill="#003865" fill-opacity="1"><g transform="translate(180.22423, 236.754858)"><g><path d="M 28.640625 -18.671875 L 8.640625 1.328125 L 5.59375 -1.765625 L 22.46875 -18.671875 L 5.59375 -35.546875 L 8.640625 -38.671875 Z M 28.640625 -18.671875 "/></g></g></g><g fill="#3ccf4e" fill-opacity="1"><g transform="translate(207.967755, 241.004838)"><g><path d="M 31.78125 -12.75 C 31.78125 -8.488281 30.398438 -5.296875 27.640625 -3.171875 C 24.890625 -1.054688 20.972656 0 15.890625 0 L 1.671875 0 L 1.671875 -44.609375 L 15.109375 -44.609375 C 16.972656 -44.609375 18.804688 -44.453125 20.609375 -44.140625 C 22.410156 -43.835938 24.019531 -43.265625 25.4375 -42.421875 C 26.863281 -41.578125 28.019531 -40.40625 28.90625 -38.90625 C 29.800781 -37.414062 30.25 -35.460938 30.25 -33.046875 C 30.25 -28.421875 27.9375 -25.265625 23.3125 -23.578125 C 28.957031 -21.847656 31.78125 -18.238281 31.78125 -12.75 Z M 25.5625 -33.046875 C 25.5625 -34.617188 25.226562 -35.90625 24.5625 -36.90625 C 23.90625 -37.914062 23.066406 -38.6875 22.046875 -39.21875 C 21.023438 -39.757812 19.894531 -40.125 18.65625 -40.3125 C 17.425781 -40.507812 16.242188 -40.609375 15.109375 -40.609375 L 6.359375 -40.609375 L 6.359375 -25.46875 L 15.109375 -25.46875 C 16.378906 -25.46875 17.628906 -25.5625 18.859375 -25.75 C 20.097656 -25.945312 21.207031 -26.320312 22.1875 -26.875 C 23.164062 -27.4375 23.972656 -28.207031 24.609375 -29.1875 C 25.242188 -30.164062 25.5625 -31.453125 25.5625 -33.046875 Z M 27.109375 -12.75 C 27.109375 -15.820312 26.109375 -18.054688 24.109375 -19.453125 C 22.117188 -20.859375 19.378906 -21.5625 15.890625 -21.5625 L 6.359375 -21.5625 L 6.359375 -4 L 15.890625 -4 C 19.378906 -4 22.117188 -4.734375 24.109375 -6.203125 C 26.109375 -7.671875 27.109375 -9.851562 27.109375 -12.75 Z M 27.109375 -12.75 "/></g></g></g><g fill="#3ccf4e" fill-opacity="1"><g transform="translate(246.178511, 241.004838)"><g><path d="M -0.0625 -8.609375 C -0.0625 -10.617188 0.4375 -12.300781 1.4375 -13.65625 C 2.4375 -15.007812 3.75 -16.078125 5.375 -16.859375 C 7.007812 -17.648438 8.878906 -18.222656 10.984375 -18.578125 C 13.097656 -18.929688 15.25 -19.109375 17.4375 -19.109375 C 18.28125 -19.109375 19.035156 -19.09375 19.703125 -19.0625 C 20.378906 -19.039062 21.019531 -19.007812 21.625 -18.96875 C 22.226562 -18.925781 22.835938 -18.867188 23.453125 -18.796875 C 24.066406 -18.734375 24.738281 -18.65625 25.46875 -18.5625 L 25.46875 -20.84375 C 25.46875 -22.394531 25.128906 -23.671875 24.453125 -24.671875 C 23.785156 -25.679688 22.960938 -26.472656 21.984375 -27.046875 C 21.003906 -27.628906 19.976562 -28.039062 18.90625 -28.28125 C 17.832031 -28.519531 16.921875 -28.640625 16.171875 -28.640625 C 13.796875 -28.640625 11.601562 -28.320312 9.59375 -27.6875 C 7.59375 -27.050781 5.726562 -26.195312 4 -25.125 L 1.875 -28.640625 C 3.789062 -29.804688 5.9375 -30.757812 8.3125 -31.5 C 10.695312 -32.238281 13.316406 -32.609375 16.171875 -32.609375 C 17.898438 -32.609375 19.601562 -32.382812 21.28125 -31.9375 C 22.957031 -31.5 24.457031 -30.816406 25.78125 -29.890625 C 27.113281 -28.960938 28.179688 -27.75 28.984375 -26.25 C 29.785156 -24.75 30.1875 -22.945312 30.1875 -20.84375 L 30.1875 0 L 25.46875 0 L 25.46875 -5.328125 C 24.644531 -4.304688 23.710938 -3.40625 22.671875 -2.625 C 21.640625 -1.851562 20.550781 -1.222656 19.40625 -0.734375 C 18.269531 -0.242188 17.128906 0.128906 15.984375 0.390625 C 14.847656 0.648438 13.769531 0.78125 12.75 0.78125 C 8.53125 0.78125 5.335938 -0.0234375 3.171875 -1.640625 C 1.015625 -3.253906 -0.0625 -5.578125 -0.0625 -8.609375 Z M 12.75 -3.21875 C 14.707031 -3.21875 16.46875 -3.503906 18.03125 -4.078125 C 19.59375 -4.660156 20.921875 -5.382812 22.015625 -6.25 C 23.109375 -7.113281 23.957031 -8.035156 24.5625 -9.015625 C 25.164062 -10.003906 25.46875 -10.894531 25.46875 -11.6875 L 25.46875 -14.703125 C 23.9375 -14.929688 22.46875 -15.054688 21.0625 -15.078125 C 19.664062 -15.097656 18.457031 -15.109375 17.4375 -15.109375 C 15.75 -15.109375 14.125 -14.992188 12.5625 -14.765625 C 11 -14.535156 9.632812 -14.164062 8.46875 -13.65625 C 7.3125 -13.144531 6.378906 -12.476562 5.671875 -11.65625 C 4.960938 -10.832031 4.609375 -9.816406 4.609375 -8.609375 C 4.609375 -7.265625 5.265625 -6.03125 6.578125 -4.90625 C 7.890625 -3.78125 9.945312 -3.21875 12.75 -3.21875 Z M 12.75 -3.21875 "/></g></g></g><g fill="#3ccf4e" fill-opacity="1"><g transform="translate(284.389267, 241.004838)"><g><path d="M 32.84375 -31.859375 L 15.625 8.0625 C 14.726562 10.300781 13.472656 11.765625 11.859375 12.453125 C 10.242188 13.148438 8.457031 13.5 6.5 13.5 C 4.3125 13.5 2.125 13.101562 -0.0625 12.3125 L 0.859375 8.265625 C 1.929688 8.722656 2.976562 9.046875 4 9.234375 C 5.019531 9.429688 5.851562 9.53125 6.5 9.53125 C 8.039062 9.53125 9.101562 9.15625 9.6875 8.40625 C 10.269531 7.65625 10.78125 6.769531 11.21875 5.75 L 13.15625 0.921875 L -1.0625 -31.859375 L 4.484375 -31.859375 L 15.96875 -4 L 27.234375 -31.859375 Z M 32.84375 -31.859375 "/></g></g></g><g fill="#3ccf4e" fill-opacity="1"><g transform="translate(322.588841, 241.004838)"><g/></g></g></svg>